<?xml version="1.0" encoding="UTF-8" standalone="no"?>
<svg
   viewBox="0 0 189.37004 49.17173"
   version="1.1"
   id="svg1"
   sodipodi:docname="criticAI_logo.svg"
   xml:space="preserve"
   width="189.37004"
   height="49.17173"
   inkscape:version="1.4.3 (0d15f75042, 2025-12-25)"
   xmlns:inkscape="http://www.inkscape.org/namespaces/inkscape"
   xmlns:sodipodi="http://sodipodi.sourceforge.net/DTD/sodipodi-0.dtd"
   xmlns="http://www.w3.org/2000/svg"
   xmlns:svg="http://www.w3.org/2000/svg"><defs
     id="defs1" /><sodipodi:namedview
     id="namedview1"
     pagecolor="#ffffff"
     bordercolor="#999999"
     borderopacity="1"
     inkscape:showpageshadow="2"
     inkscape:pageopacity="0"
     inkscape:pagecheckerboard="0"
     inkscape:deskcolor="#d1d1d1"
     inkscape:zoom="22.740011"
     inkscape:cx="23.966568"
     inkscape:cy="24.999988"
     inkscape:window-width="1800"
     inkscape:window-height="1054"
     inkscape:window-x="0"
     inkscape:window-y="0"
     inkscape:window-maximized="1"
     inkscape:current-layer="svg1"
     showguides="true"><sodipodi:guide
       position="127.73253,458.63365"
       orientation="0,-1"
       id="guide5"
       inkscape:locked="false" /><sodipodi:guide
       position="134.77235,464.97232"
       orientation="1,0"
       id="guide6"
       inkscape:locked="false" /></sodipodi:namedview><!--!Font Awesome Free 7.2.0 by @fontawesome - https://fontawesome.com License - https://fontawesome.com/license/free Copyright 2026 Fonticons, Inc.--><path
     id="path1-5"
     style="stroke:#000000;stroke-width:0.357501;stroke-dasharray:none;stroke-opacity:1"
     d="m 160.59122,4.1787505 c -1.05264,0 -2.0855,0.2085 -3.05869,0.60573 l -24.07178,9.9106065 c -0.89375,0.36743 -1.49026,1.314596 -1.46961,2.19482 0.0206,0.878174 0.87562,1.57701 1.56725,2.118551 6.81615,5.337016 23.97414,9.986669 23.97414,9.986669 0.97319,0.39723 2.00605,0.60592 3.05869,0.60592 1.05264,0 2.08531,-0.20869 3.05851,-0.60592 l 24.07177,-9.9106 c 0.89375,-0.36743 1.4698,-1.23136 1.4698,-2.19462 0,-0.96327 -0.57605,-1.82739 -1.4698,-2.19482 L 163.64973,4.7844805 c -0.9732,-0.39723 -2.00587,-0.60573 -3.05851,-0.60573 z m 0.0807,3.18652 c 0.5746,0 1.03883,0.464235 1.03883,1.038835 v 2.0776595 h 3.1165 c 1.72054,0 3.1163,1.395771 3.1163,3.116302 v 7.27183 c 0,1.72054 -1.39576,3.1165 -3.1163,3.1165 h -8.31066 c -1.72054,0 -3.1163,-1.39596 -3.1163,-3.1165 v -7.27183 c 0,-1.720531 1.39576,-3.116302 3.1163,-3.116302 h 3.1165 V 8.4041055 c 0,-0.5746 0.46424,-1.038835 1.03883,-1.038835 z m -3.11649,6.7522165 c -0.86027,0 -1.55825,0.69798 -1.55825,1.55825 0,0.86027 0.69798,1.55825 1.55825,1.55825 0.86027,0 1.55824,-0.69798 1.55824,-1.55825 0,-0.86027 -0.69797,-1.55825 -1.55824,-1.55825 z m 6.23299,0 c -0.86027,0 -1.55825,0.69798 -1.55825,1.55825 0,0.86027 0.69798,1.55825 1.55825,1.55825 0.86027,0 1.55825,-0.69798 1.55825,-1.55825 0,-0.86027 -0.69798,-1.55825 -1.55825,-1.55825 z m -12.46579,0.51942 c 0.57459,0 1.03883,0.46423 1.03883,1.03883 v 3.11649 c 0,0.5746 -0.46424,1.03884 -1.03883,1.03884 -0.5746,0 -1.03883,-0.46424 -1.03883,-1.03884 v -3.11649 c 0,-0.5746 0.46423,-1.03883 1.03883,-1.03883 z m 18.69859,0 c 0.57459,0 1.03883,0.46423 1.03883,1.03883 v 3.11649 c 0,0.5746 -0.46424,1.03884 -1.03883,1.03884 -0.5746,0 -1.03883,-0.46424 -1.03883,-1.03884 v -3.11649 c 0,-0.5746 0.46423,-1.03883 1.03883,-1.03883 z m -13.76433,4.93445 c -0.43176,0 -0.77913,0.34736 -0.77913,0.77912 0,0.43176 0.34737,0.77913 0.77913,0.77913 h 1.03883 c 0.43175,0 0.77912,-0.34737 0.77912,-0.77913 0,-0.43176 -0.34737,-0.77912 -0.77912,-0.77912 z m 3.89562,0 c -0.43176,0 -0.77913,0.34736 -0.77913,0.77912 0,0.43176 0.34737,0.77913 0.77913,0.77913 h 1.03883 c 0.43176,0 0.77912,-0.34737 0.77912,-0.77913 0,-0.43176 -0.34736,-0.77912 -0.77912,-0.77912 z m 3.89562,0 c -0.43176,0 -0.77913,0.34736 -0.77913,0.77912 0,0.43176 0.34737,0.77913 0.77913,0.77913 h 1.03883 c 0.43176,0 0.77912,-0.34737 0.77912,-0.77913 0,-0.43176 -0.34736,-0.77912 -0.77912,-0.77912 z m -22.52361,7.98384 v 0.0101 11.56913 c 0,5.26321 8.5403,9.53336 19.06672,9.53336 10.52641,0 19.06672,-4.27015 19.06672,-9.53336 v -11.57921 l -14.19085,5.84915 c -1.54917,0.63556 -3.1976,0.96338 -4.87587,0.96338 -1.67827,0 -3.3269,-0.32782 -4.87607,-0.96338 z"
     sodipodi:nodetypes="sccaacsccsccssscsssssssscsssssssssssssssssssssssssssssssssssssssssssssssccsssccscc" /><text
     xml:space="preserve"
     style="font-style:normal;font-variant:normal;font-weight:normal;font-stretch:normal;font-size:18.6667px;font-family:Montserrat;-inkscape-font-specification:'Montserrat, Normal';font-variant-ligatures:normal;font-variant-caps:normal;font-variant-numeric:normal;font-variant-east-asian:normal;writing-mode:lr-tb;direction:ltr;fill:#000000;stroke:#000000;stroke-width:0;stroke-dasharray:none"
     x="-1.6426886"
     y="48.798389"
     id="text1"><tspan
       sodipodi:role="line"
       id="tspan1"
       x="-1.6426886"
       y="48.798389"
       style="font-style:normal;font-variant:normal;font-weight:600;font-stretch:normal;font-size:37.3333px;font-family:Montserrat;-inkscape-font-specification:'Montserrat, Semi-Bold';font-variant-ligatures:normal;font-variant-caps:normal;font-variant-numeric:normal;font-variant-east-asian:normal">Critic<tspan
   style="font-style:normal;font-variant:normal;font-weight:800;font-stretch:normal;font-size:37.3333px;font-family:Montserrat;-inkscape-font-specification:'Montserrat, Ultra-Bold';font-variant-ligatures:normal;font-variant-caps:normal;font-variant-numeric:normal;font-variant-east-asian:normal"
   id="tspan2">AI</tspan></tspan></text><circle
     id="path6"
     style="fill:#000000;stroke:#000000"
     cx="119.21701"
     cy="16.599836"
     r="0" /><path
     style="fill:#000000;stroke:#ffffff;stroke-width:3.7;stroke-dasharray:none;stroke-opacity:1"
     d="M 140.07777,25.099465 131.6447,21.282391"
     id="path7"
     sodipodi:nodetypes="cc" /></svg>
